<?xml version="1.0" encoding="UTF-8" standalone="no"?>
<!DOCTYPE svg PUBLIC "-//W3C//DTD SVG 1.1//EN" "http://www.w3.org/Graphics/SVG/1.1/DTD/svg11.dtd">
<svg width="100%" height="100%" viewBox="0 0 979 1000" version="1.1" xmlns="http://www.w3.org/2000/svg" xmlns:xlink="http://www.w3.org/1999/xlink" xml:space="preserve" xmlns:serif="http://www.serif.com/" style="fill-rule:evenodd;clip-rule:evenodd;stroke-linecap:round;stroke-miterlimit:1.5;">
    <g transform="matrix(1.993333,0,0,1.993333,-3973.199027,-13387.625182)">
        <path d="M1993.244,6716.2L1993.244,6773.769L2049.533,6773.769L2049.533,6716.2L1993.244,6716.2ZM2057.574,6716.2L2057.574,6749.097L2065.615,6749.097L2065.615,6740.872L2089.739,6740.872L2089.739,6732.648L2073.656,6732.648L2073.656,6716.2L2057.574,6716.2ZM2081.698,6716.2L2081.698,6724.424L2089.739,6724.424L2089.739,6716.2L2081.698,6716.2ZM2097.78,6716.2L2097.78,6732.648L2105.821,6732.648L2105.821,6740.872L2113.863,6740.872L2113.863,6749.097L2105.821,6749.097L2105.821,6740.872L2097.78,6740.872L2097.78,6749.097L2081.698,6749.097L2081.698,6757.321L2089.739,6757.321L2089.739,6790.217L2097.78,6790.217L2097.78,6806.666L2089.739,6806.666L2089.739,6814.89L2105.821,6814.89L2105.821,6823.114L2113.863,6823.114L2113.863,6814.89L2129.945,6814.89L2129.945,6806.666L2137.986,6806.666L2137.986,6823.114L2154.069,6823.114L2154.069,6831.338L2162.11,6831.338L2162.11,6823.114L2154.069,6823.114L2154.069,6814.89L2186.234,6814.89L2186.234,6823.114L2170.152,6823.114L2170.152,6831.338L2194.275,6831.338L2194.275,6839.562L2202.317,6839.562L2202.317,6847.786L2186.234,6847.786L2186.234,6856.01L2210.358,6856.01L2210.358,6864.235L2186.234,6864.235L2186.234,6856.01L2178.193,6856.01L2178.193,6847.786L2170.152,6847.786L2170.152,6839.562L2162.11,6839.562L2162.11,6847.786L2154.069,6847.786L2154.069,6839.562L2146.028,6839.562L2146.028,6831.338L2137.986,6831.338L2137.986,6847.786L2129.945,6847.786L2129.945,6864.235L2121.904,6864.235L2121.904,6872.459L2113.863,6872.459L2113.863,6856.01L2121.904,6856.01L2121.904,6847.786L2105.821,6847.786L2105.821,6839.562L2097.78,6839.562L2097.78,6847.786L2081.698,6847.786L2081.698,6856.01L2089.739,6856.01L2089.739,6864.235L2097.78,6864.235L2097.78,6872.459L2113.863,6872.459L2113.863,6880.683L2121.904,6880.683L2121.904,6888.907L2146.028,6888.907L2146.028,6897.131L2137.986,6897.131L2137.986,6905.355L2129.945,6905.355L2129.945,6897.131L2121.904,6897.131L2121.904,6888.907L2113.863,6888.907L2113.863,6913.579L2121.904,6913.579L2121.904,6921.803L2137.986,6921.803L2137.986,6930.028L2146.028,6930.028L2146.028,6938.252L2154.069,6938.252L2154.069,6930.028L2162.11,6930.028L2162.11,6954.7L2170.152,6954.7L2170.152,6962.924L2162.11,6962.924L2162.11,6954.7L2154.069,6954.7L2154.069,6962.924L2146.028,6962.924L2146.028,6971.148L2137.986,6971.148L2137.986,6954.7L2129.945,6954.7L2129.945,6962.924L2113.863,6962.924L2113.863,6946.476L2105.821,6946.476L2105.821,6938.252L2097.78,6938.252L2097.78,6930.028L2105.821,6930.028L2105.821,6938.252L2113.863,6938.252L2113.863,6946.476L2137.986,6946.476L2137.986,6954.7L2146.028,6954.7L2146.028,6946.476L2137.986,6946.476L2137.986,6930.028L2113.863,6930.028L2113.863,6921.803L2105.821,6921.803L2105.821,6913.579L2097.78,6913.579L2097.78,6905.355L2089.739,6905.355L2089.739,6913.579L2097.78,6913.579L2097.78,6921.803L2089.739,6921.803L2089.739,6913.579L2081.698,6913.579L2081.698,6905.355L2065.615,6905.355L2065.615,6897.131L2073.656,6897.131L2073.656,6888.907L2065.615,6888.907L2065.615,6880.683L2041.491,6880.683L2041.491,6872.459L2033.45,6872.459L2033.45,6864.235L2025.409,6864.235L2025.409,6872.459L2009.326,6872.459L2009.326,6847.786L2017.367,6847.786L2017.367,6856.01L2033.45,6856.01L2033.45,6864.235L2041.491,6864.235L2041.491,6872.459L2073.656,6872.459L2073.656,6839.562L2049.533,6839.562L2049.533,6831.338L2017.367,6831.338L2017.367,6823.114L2009.326,6823.114L2009.326,6831.338L2001.285,6831.338L2001.285,6814.89L1993.244,6814.89L1993.244,6847.786L2001.285,6847.786L2001.285,6864.235L1993.244,6864.235L1993.244,6880.683L2001.285,6880.683L2001.285,6872.459L2009.326,6872.459L2009.326,6880.683L2017.367,6880.683L2017.367,6888.907L2049.533,6888.907L2049.533,6897.131L2033.45,6897.131L2033.45,6913.579L2041.491,6913.579L2041.491,6921.803L2049.533,6921.803L2049.533,6930.028L2057.574,6930.028L2057.574,6921.803L2065.615,6921.803L2065.615,6930.028L2073.656,6930.028L2073.656,6938.252L2097.78,6938.252L2097.78,6946.476L2105.821,6946.476L2105.821,6954.7L2097.78,6954.7L2097.78,6946.476L2073.656,6946.476L2073.656,6954.7L2065.615,6954.7L2065.615,6938.252L2057.574,6938.252L2057.574,6946.476L2033.45,6946.476L2033.45,6913.579L2025.409,6913.579L2025.409,6905.355L2017.367,6905.355L2017.367,6913.579L2025.409,6913.579L2025.409,6921.803L2017.367,6921.803L2017.367,6930.028L2009.326,6930.028L2009.326,6938.252L1993.244,6938.252L1993.244,6946.476L2001.285,6946.476L2001.285,6954.7L1993.244,6954.7L1993.244,6971.148L2009.326,6971.148L2009.326,6954.7L2017.367,6954.7L2017.367,6987.597L2009.326,6987.597L2009.326,6979.372L1993.244,6979.372L1993.244,6987.597L2001.285,6987.597L2001.285,6995.821L1993.244,6995.821L1993.244,7004.045L2009.326,7004.045L2009.326,7012.269L1993.244,7012.269L1993.244,7020.493L2025.409,7020.493L2025.409,7012.269L2017.367,7012.269L2017.367,6995.821L2025.409,6995.821L2025.409,7004.045L2033.45,7004.045L2033.45,6995.821L2025.409,6995.821L2025.409,6987.597L2057.574,6987.597L2057.574,6995.821L2041.491,6995.821L2041.491,7004.045L2073.656,7004.045L2073.656,7012.269L2081.698,7012.269L2081.698,7020.493L2073.656,7020.493L2073.656,7036.941L2065.615,7036.941L2065.615,7045.165L2081.698,7045.165L2081.698,7053.39L2089.739,7053.39L2089.739,7061.614L2097.78,7061.614L2097.78,7053.39L2089.739,7053.39L2089.739,7045.165L2081.698,7045.165L2081.698,7028.717L2089.739,7028.717L2089.739,7045.165L2097.78,7045.165L2097.78,7053.39L2105.821,7053.39L2105.821,7045.165L2097.78,7045.165L2097.78,7036.941L2105.821,7036.941L2105.821,7045.165L2113.863,7045.165L2113.863,7061.614L2121.904,7061.614L2121.904,7078.062L2113.863,7078.062L2113.863,7061.614L2105.821,7061.614L2105.821,7078.062L2097.78,7078.062L2097.78,7069.838L2089.739,7069.838L2089.739,7061.614L2073.656,7061.614L2073.656,7053.39L2057.574,7053.39L2057.574,7036.941L2049.533,7036.941L2049.533,7028.717L2041.491,7028.717L2041.491,7020.493L2033.45,7020.493L2033.45,7028.717L2025.409,7028.717L2025.409,7036.941L2033.45,7036.941L2033.45,7045.165L2041.491,7045.165L2041.491,7053.39L2057.574,7053.39L2057.574,7061.614L2041.491,7061.614L2041.491,7053.39L2033.45,7053.39L2033.45,7045.165L2025.409,7045.165L2025.409,7053.39L2009.326,7053.39L2009.326,7045.165L1993.244,7045.165L1993.244,7053.39L2001.285,7053.39L2001.285,7061.614L2009.326,7061.614L2009.326,7069.838L2017.367,7069.838L2017.367,7094.51L2025.409,7094.51L2025.409,7069.838L2033.45,7069.838L2033.45,7078.062L2041.491,7078.062L2041.491,7086.286L2049.533,7086.286L2049.533,7094.51L2057.574,7094.51L2057.574,7110.959L2041.491,7110.959L2041.491,7102.734L2033.45,7102.734L2033.45,7110.959L2041.491,7110.959L2041.491,7119.183L2065.615,7119.183L2065.615,7127.407L2073.656,7127.407L2073.656,7135.631L2081.698,7135.631L2081.698,7143.855L2073.656,7143.855L2073.656,7135.631L2065.615,7135.631L2065.615,7127.407L2041.491,7127.407L2041.491,7119.183L2033.45,7119.183L2033.45,7110.959L2025.409,7110.959L2025.409,7102.734L2017.367,7102.734L2017.367,7127.407L2009.326,7127.407L2009.326,7135.631L1993.244,7135.631L1993.244,7152.079L2025.409,7152.079L2025.409,7143.855L2017.367,7143.855L2017.367,7135.631L2025.409,7135.631L2025.409,7143.855L2033.45,7143.855L2033.45,7135.631L2049.533,7135.631L2049.533,7143.855L2041.491,7143.855L2041.491,7152.079L2057.574,7152.079L2057.574,7160.303L2065.615,7160.303L2065.615,7143.855L2073.656,7143.855L2073.656,7184.976L2081.698,7184.976L2081.698,7193.2L2065.615,7193.2L2065.615,7201.424L2073.656,7201.424L2073.656,7209.648L2081.698,7209.648L2081.698,7201.424L2089.739,7201.424L2089.739,7217.872L2105.821,7217.872L2105.821,7209.648L2097.78,7209.648L2097.78,7201.424L2089.739,7201.424L2089.739,7184.976L2081.698,7184.976L2081.698,7176.752L2089.739,7176.752L2089.739,7184.976L2113.863,7184.976L2113.863,7201.424L2105.821,7201.424L2105.821,7193.2L2097.78,7193.2L2097.78,7201.424L2105.821,7201.424L2105.821,7209.648L2113.863,7209.648L2113.863,7217.872L2129.945,7217.872L2129.945,7209.648L2121.904,7209.648L2121.904,7176.752L2089.739,7176.752L2089.739,7168.528L2081.698,7168.528L2081.698,7152.079L2089.739,7152.079L2089.739,7168.528L2113.863,7168.528L2113.863,7160.303L2105.821,7160.303L2105.821,7143.855L2097.78,7143.855L2097.78,7127.407L2089.739,7127.407L2089.739,7119.183L2073.656,7119.183L2073.656,7110.959L2065.615,7110.959L2065.615,7102.734L2073.656,7102.734L2073.656,7110.959L2097.78,7110.959L2097.78,7127.407L2105.821,7127.407L2105.821,7110.959L2113.863,7110.959L2113.863,7119.183L2121.904,7119.183L2121.904,7110.959L2113.863,7110.959L2113.863,7102.734L2121.904,7102.734L2121.904,7110.959L2129.945,7110.959L2129.945,7094.51L2105.821,7094.51L2105.821,7102.734L2089.739,7102.734L2089.739,7094.51L2081.698,7094.51L2081.698,7086.286L2073.656,7086.286L2073.656,7078.062L2057.574,7078.062L2057.574,7086.286L2065.615,7086.286L2065.615,7094.51L2057.574,7094.51L2057.574,7086.286L2049.533,7086.286L2049.533,7078.062L2041.491,7078.062L2041.491,7069.838L2065.615,7069.838L2065.615,7061.614L2073.656,7061.614L2073.656,7078.062L2089.739,7078.062L2089.739,7094.51L2097.78,7094.51L2097.78,7086.286L2129.945,7086.286L2129.945,7094.51L2137.986,7094.51L2137.986,7086.286L2129.945,7086.286L2129.945,7069.838L2146.028,7069.838L2146.028,7078.062L2137.986,7078.062L2137.986,7086.286L2154.069,7086.286L2154.069,7094.51L2146.028,7094.51L2146.028,7102.734L2137.986,7102.734L2137.986,7119.183L2154.069,7119.183L2154.069,7127.407L2162.11,7127.407L2162.11,7119.183L2154.069,7119.183L2154.069,7102.734L2162.11,7102.734L2162.11,7119.183L2178.193,7119.183L2178.193,7127.407L2170.152,7127.407L2170.152,7135.631L2154.069,7135.631L2154.069,7127.407L2137.986,7127.407L2137.986,7119.183L2129.945,7119.183L2129.945,7127.407L2137.986,7127.407L2137.986,7135.631L2146.028,7135.631L2146.028,7143.855L2137.986,7143.855L2137.986,7135.631L2129.945,7135.631L2129.945,7127.407L2121.904,7127.407L2121.904,7135.631L2105.821,7135.631L2105.821,7143.855L2121.904,7143.855L2121.904,7152.079L2146.028,7152.079L2146.028,7160.303L2137.986,7160.303L2137.986,7168.528L2129.945,7168.528L2129.945,7160.303L2121.904,7160.303L2121.904,7176.752L2129.945,7176.752L2129.945,7184.976L2137.986,7184.976L2137.986,7193.2L2146.028,7193.2L2146.028,7201.424L2154.069,7201.424L2154.069,7193.2L2162.11,7193.2L2162.11,7184.976L2170.152,7184.976L2170.152,7176.752L2154.069,7176.752L2154.069,7168.528L2162.11,7168.528L2162.11,7160.303L2178.193,7160.303L2178.193,7152.079L2154.069,7152.079L2154.069,7143.855L2178.193,7143.855L2178.193,7152.079L2186.234,7152.079L2186.234,7160.303L2210.358,7160.303L2210.358,7143.855L2202.317,7143.855L2202.317,7152.079L2186.234,7152.079L2186.234,7143.855L2178.193,7143.855L2178.193,7135.631L2186.234,7135.631L2186.234,7143.855L2194.275,7143.855L2194.275,7135.631L2202.317,7135.631L2202.317,7127.407L2186.234,7127.407L2186.234,7119.183L2178.193,7119.183L2178.193,7110.959L2170.152,7110.959L2170.152,7102.734L2162.11,7102.734L2162.11,7086.286L2154.069,7086.286L2154.069,7078.062L2162.11,7078.062L2162.11,7086.286L2170.152,7086.286L2170.152,7094.51L2178.193,7094.51L2178.193,7110.959L2186.234,7110.959L2186.234,7119.183L2210.358,7119.183L2210.358,7143.855L2218.399,7143.855L2218.399,7184.976L2226.44,7184.976L2226.44,7201.424L2218.399,7201.424L2218.399,7184.976L2210.358,7184.976L2210.358,7176.752L2202.317,7176.752L2202.317,7168.528L2194.275,7168.528L2194.275,7184.976L2202.317,7184.976L2202.317,7193.2L2194.275,7193.2L2194.275,7184.976L2186.234,7184.976L2186.234,7193.2L2194.275,7193.2L2194.275,7201.424L2186.234,7201.424L2186.234,7193.2L2170.152,7193.2L2170.152,7209.648L2186.234,7209.648L2186.234,7217.872L2218.399,7217.872L2218.399,7209.648L2226.44,7209.648L2226.44,7217.872L2234.482,7217.872L2234.482,7209.648L2242.523,7209.648L2242.523,7201.424L2234.482,7201.424L2234.482,7184.976L2258.605,7184.976L2258.605,7193.2L2250.564,7193.2L2250.564,7217.872L2290.77,7217.872L2290.77,7209.648L2274.688,7209.648L2274.688,7201.424L2266.647,7201.424L2266.647,7184.976L2258.605,7184.976L2258.605,7176.752L2266.647,7176.752L2266.647,7184.976L2282.729,7184.976L2282.729,7201.424L2290.77,7201.424L2290.77,7168.528L2274.688,7168.528L2274.688,7160.303L2282.729,7160.303L2282.729,7152.079L2290.77,7152.079L2290.77,7143.855L2306.853,7143.855L2306.853,7152.079L2314.894,7152.079L2314.894,7160.303L2322.936,7160.303L2322.936,7168.528L2330.977,7168.528L2330.977,7160.303L2322.936,7160.303L2322.936,7152.079L2314.894,7152.079L2314.894,7143.855L2322.936,7143.855L2322.936,7152.079L2330.977,7152.079L2330.977,7160.303L2339.018,7160.303L2339.018,7168.528L2363.142,7168.528L2363.142,7176.752L2322.936,7176.752L2322.936,7209.648L2330.977,7209.648L2330.977,7217.872L2339.018,7217.872L2339.018,7209.648L2347.059,7209.648L2347.059,7217.872L2387.266,7217.872L2387.266,7209.648L2395.307,7209.648L2395.307,7193.2L2379.224,7193.2L2379.224,7201.424L2371.183,7201.424L2371.183,7209.648L2355.101,7209.648L2355.101,7201.424L2339.018,7201.424L2339.018,7193.2L2355.101,7193.2L2355.101,7201.424L2363.142,7201.424L2363.142,7184.976L2395.307,7184.976L2395.307,7193.2L2403.348,7193.2L2403.348,7184.976L2395.307,7184.976L2395.307,7176.752L2387.266,7176.752L2387.266,7168.528L2379.224,7168.528L2379.224,7160.303L2371.183,7160.303L2371.183,7168.528L2379.224,7168.528L2379.224,7176.752L2371.183,7176.752L2371.183,7168.528L2363.142,7168.528L2363.142,7152.079L2387.266,7152.079L2387.266,7143.855L2395.307,7143.855L2395.307,7168.528L2403.348,7168.528L2403.348,7176.752L2411.389,7176.752L2411.389,7201.424L2403.348,7201.424L2403.348,7209.648L2419.431,7209.648L2419.431,7201.424L2427.472,7201.424L2427.472,7193.2L2451.596,7193.2L2451.596,7201.424L2459.637,7201.424L2459.637,7209.648L2443.554,7209.648L2443.554,7201.424L2435.513,7201.424L2435.513,7209.648L2443.554,7209.648L2443.554,7217.872L2483.761,7217.872L2483.761,7209.648L2475.72,7209.648L2475.72,7193.2L2459.637,7193.2L2459.637,7184.976L2451.596,7184.976L2451.596,7143.855L2443.554,7143.855L2443.554,7135.631L2419.431,7135.631L2419.431,7119.183L2427.472,7119.183L2427.472,7127.407L2435.513,7127.407L2435.513,7119.183L2427.472,7119.183L2427.472,7110.959L2411.389,7110.959L2411.389,7127.407L2403.348,7127.407L2403.348,7119.183L2395.307,7119.183L2395.307,7135.631L2403.348,7135.631L2403.348,7143.855L2411.389,7143.855L2411.389,7168.528L2403.348,7168.528L2403.348,7143.855L2395.307,7143.855L2395.307,7135.631L2379.224,7135.631L2379.224,7119.183L2387.266,7119.183L2387.266,7110.959L2379.224,7110.959L2379.224,7102.734L2371.183,7102.734L2371.183,7110.959L2363.142,7110.959L2363.142,7119.183L2371.183,7119.183L2371.183,7135.631L2379.224,7135.631L2379.224,7143.855L2339.018,7143.855L2339.018,7135.631L2347.059,7135.631L2347.059,7127.407L2339.018,7127.407L2339.018,7110.959L2322.936,7110.959L2322.936,7119.183L2314.894,7119.183L2314.894,7127.407L2322.936,7127.407L2322.936,7135.631L2330.977,7135.631L2330.977,7143.855L2322.936,7143.855L2322.936,7135.631L2306.853,7135.631L2306.853,7119.183L2298.812,7119.183L2298.812,7110.959L2266.647,7110.959L2266.647,7086.286L2258.605,7086.286L2258.605,7078.062L2250.564,7078.062L2250.564,7069.838L2242.523,7069.838L2242.523,7078.062L2250.564,7078.062L2250.564,7086.286L2258.605,7086.286L2258.605,7110.959L2250.564,7110.959L2250.564,7119.183L2242.523,7119.183L2242.523,7110.959L2226.44,7110.959L2226.44,7102.734L2218.399,7102.734L2218.399,7094.51L2210.358,7094.51L2210.358,7069.838L2218.399,7069.838L2218.399,7086.286L2242.523,7086.286L2242.523,7102.734L2250.564,7102.734L2250.564,7086.286L2242.523,7086.286L2242.523,7078.062L2234.482,7078.062L2234.482,7053.39L2194.275,7053.39L2194.275,7036.941L2202.317,7036.941L2202.317,7045.165L2210.358,7045.165L2210.358,7036.941L2218.399,7036.941L2218.399,7045.165L2226.44,7045.165L2226.44,7036.941L2218.399,7036.941L2218.399,7028.717L2210.358,7028.717L2210.358,7012.269L2226.44,7012.269L2226.44,7004.045L2218.399,7004.045L2218.399,6995.821L2194.275,6995.821L2194.275,6987.597L2210.358,6987.597L2210.358,6971.148L2202.317,6971.148L2202.317,6979.372L2178.193,6979.372L2178.193,6971.148L2186.234,6971.148L2186.234,6962.924L2194.275,6962.924L2194.275,6954.7L2210.358,6954.7L2210.358,6962.924L2218.399,6962.924L2218.399,6987.597L2274.688,6987.597L2274.688,6979.372L2266.647,6979.372L2266.647,6962.924L2258.605,6962.924L2258.605,6946.476L2266.647,6946.476L2266.647,6954.7L2274.688,6954.7L2274.688,6946.476L2282.729,6946.476L2282.729,6962.924L2290.77,6962.924L2290.77,6954.7L2298.812,6954.7L2298.812,6962.924L2306.853,6962.924L2306.853,6954.7L2298.812,6954.7L2298.812,6938.252L2290.77,6938.252L2290.77,6930.028L2306.853,6930.028L2306.853,6938.252L2330.977,6938.252L2330.977,6971.148L2339.018,6971.148L2339.018,6962.924L2363.142,6962.924L2363.142,6954.7L2355.101,6954.7L2355.101,6946.476L2371.183,6946.476L2371.183,6971.148L2347.059,6971.148L2347.059,6979.372L2339.018,6979.372L2339.018,6987.597L2322.936,6987.597L2322.936,6995.821L2306.853,6995.821L2306.853,6987.597L2314.894,6987.597L2314.894,6979.372L2306.853,6979.372L2306.853,6971.148L2282.729,6971.148L2282.729,6987.597L2290.77,6987.597L2290.77,6979.372L2298.812,6979.372L2298.812,7004.045L2282.729,7004.045L2282.729,6995.821L2274.688,6995.821L2274.688,7004.045L2282.729,7004.045L2282.729,7012.269L2274.688,7012.269L2274.688,7004.045L2258.605,7004.045L2258.605,7020.493L2266.647,7020.493L2266.647,7012.269L2274.688,7012.269L2274.688,7028.717L2266.647,7028.717L2266.647,7045.165L2282.729,7045.165L2282.729,7053.39L2274.688,7053.39L2274.688,7061.614L2290.77,7061.614L2290.77,7053.39L2298.812,7053.39L2298.812,7061.614L2322.936,7061.614L2322.936,7078.062L2339.018,7078.062L2339.018,7086.286L2347.059,7086.286L2347.059,7094.51L2355.101,7094.51L2355.101,7102.734L2363.142,7102.734L2363.142,7069.838L2355.101,7069.838L2355.101,7061.614L2363.142,7061.614L2363.142,7053.39L2355.101,7053.39L2355.101,7045.165L2339.018,7045.165L2339.018,7053.39L2347.059,7053.39L2347.059,7061.614L2339.018,7061.614L2339.018,7053.39L2314.894,7053.39L2314.894,7045.165L2306.853,7045.165L2306.853,7028.717L2314.894,7028.717L2314.894,7036.941L2322.936,7036.941L2322.936,7045.165L2330.977,7045.165L2330.977,7028.717L2314.894,7028.717L2314.894,7012.269L2322.936,7012.269L2322.936,7004.045L2339.018,7004.045L2339.018,6995.821L2347.059,6995.821L2347.059,6987.597L2371.183,6987.597L2371.183,7004.045L2363.142,7004.045L2363.142,6995.821L2355.101,6995.821L2355.101,7012.269L2330.977,7012.269L2330.977,7028.717L2339.018,7028.717L2339.018,7036.941L2355.101,7036.941L2355.101,7045.165L2379.224,7045.165L2379.224,7061.614L2387.266,7061.614L2387.266,7069.838L2395.307,7069.838L2395.307,7061.614L2387.266,7061.614L2387.266,7045.165L2395.307,7045.165L2395.307,7061.614L2403.348,7061.614L2403.348,7078.062L2411.389,7078.062L2411.389,7069.838L2419.431,7069.838L2419.431,7078.062L2427.472,7078.062L2427.472,7086.286L2411.389,7086.286L2411.389,7102.734L2419.431,7102.734L2419.431,7094.51L2443.554,7094.51L2443.554,7102.734L2435.513,7102.734L2435.513,7110.959L2451.596,7110.959L2451.596,7102.734L2459.637,7102.734L2459.637,7119.183L2467.678,7119.183L2467.678,7127.407L2475.72,7127.407L2475.72,7119.183L2467.678,7119.183L2467.678,7110.959L2475.72,7110.959L2475.72,7119.183L2483.761,7119.183L2483.761,7102.734L2475.72,7102.734L2475.72,7094.51L2467.678,7094.51L2467.678,7102.734L2459.637,7102.734L2459.637,7094.51L2451.596,7094.51L2451.596,7086.286L2435.513,7086.286L2435.513,7069.838L2427.472,7069.838L2427.472,7061.614L2419.431,7061.614L2419.431,7053.39L2427.472,7053.39L2427.472,7061.614L2435.513,7061.614L2435.513,7053.39L2443.554,7053.39L2443.554,7069.838L2459.637,7069.838L2459.637,7078.062L2451.596,7078.062L2451.596,7086.286L2467.678,7086.286L2467.678,7069.838L2459.637,7069.838L2459.637,7061.614L2451.596,7061.614L2451.596,7053.39L2443.554,7053.39L2443.554,7045.165L2451.596,7045.165L2451.596,7036.941L2443.554,7036.941L2443.554,7028.717L2459.637,7028.717L2459.637,7020.493L2451.596,7020.493L2451.596,7012.269L2435.513,7012.269L2435.513,7004.045L2419.431,7004.045L2419.431,6995.821L2411.389,6995.821L2411.389,6987.597L2395.307,6987.597L2395.307,6979.372L2379.224,6979.372L2379.224,6962.924L2387.266,6962.924L2387.266,6938.252L2379.224,6938.252L2379.224,6930.028L2371.183,6930.028L2371.183,6938.252L2363.142,6938.252L2363.142,6930.028L2347.059,6930.028L2347.059,6921.803L2322.936,6921.803L2322.936,6930.028L2306.853,6930.028L2306.853,6921.803L2314.894,6921.803L2314.894,6905.355L2306.853,6905.355L2306.853,6888.907L2298.812,6888.907L2298.812,6880.683L2290.77,6880.683L2290.77,6864.235L2274.688,6864.235L2274.688,6880.683L2266.647,6880.683L2266.647,6888.907L2258.605,6888.907L2258.605,6913.579L2266.647,6913.579L2266.647,6921.803L2274.688,6921.803L2274.688,6930.028L2282.729,6930.028L2282.729,6938.252L2290.77,6938.252L2290.77,6946.476L2282.729,6946.476L2282.729,6938.252L2274.688,6938.252L2274.688,6930.028L2266.647,6930.028L2266.647,6921.803L2242.523,6921.803L2242.523,6930.028L2234.482,6930.028L2234.482,6913.579L2226.44,6913.579L2226.44,6905.355L2218.399,6905.355L2218.399,6897.131L2210.358,6897.131L2210.358,6872.459L2218.399,6872.459L2218.399,6888.907L2226.44,6888.907L2226.44,6897.131L2242.523,6897.131L2242.523,6913.579L2250.564,6913.579L2250.564,6888.907L2226.44,6888.907L2226.44,6872.459L2218.399,6872.459L2218.399,6864.235L2226.44,6864.235L2226.44,6872.459L2234.482,6872.459L2234.482,6856.01L2218.399,6856.01L2218.399,6847.786L2226.44,6847.786L2226.44,6839.562L2234.482,6839.562L2234.482,6856.01L2242.523,6856.01L2242.523,6864.235L2250.564,6864.235L2250.564,6856.01L2274.688,6856.01L2274.688,6847.786L2266.647,6847.786L2266.647,6814.89L2250.564,6814.89L2250.564,6806.666L2242.523,6806.666L2242.523,6831.338L2234.482,6831.338L2234.482,6823.114L2226.44,6823.114L2226.44,6831.338L2194.275,6831.338L2194.275,6823.114L2218.399,6823.114L2218.399,6814.89L2226.44,6814.89L2226.44,6790.217L2234.482,6790.217L2234.482,6798.441L2242.523,6798.441L2242.523,6790.217L2250.564,6790.217L2250.564,6798.441L2258.605,6798.441L2258.605,6765.545L2266.647,6765.545L2266.647,6773.769L2274.688,6773.769L2274.688,6781.993L2266.647,6781.993L2266.647,6790.217L2290.77,6790.217L2290.77,6798.441L2314.894,6798.441L2314.894,6806.666L2322.936,6806.666L2322.936,6814.89L2330.977,6814.89L2330.977,6806.666L2322.936,6806.666L2322.936,6798.441L2314.894,6798.441L2314.894,6781.993L2306.853,6781.993L2306.853,6790.217L2298.812,6790.217L2298.812,6781.993L2282.729,6781.993L2282.729,6773.769L2274.688,6773.769L2274.688,6765.545L2266.647,6765.545L2266.647,6757.321L2258.605,6757.321L2258.605,6749.097L2234.482,6749.097L2234.482,6740.872L2226.44,6740.872L2226.44,6732.648L2218.399,6732.648L2218.399,6716.2L2210.358,6716.2L2210.358,6732.648L2218.399,6732.648L2218.399,6740.872L2226.44,6740.872L2226.44,6749.097L2218.399,6749.097L2218.399,6773.769L2210.358,6773.769L2210.358,6765.545L2202.317,6765.545L2202.317,6781.993L2210.358,6781.993L2210.358,6790.217L2170.152,6790.217L2170.152,6781.993L2137.986,6781.993L2137.986,6790.217L2129.945,6790.217L2129.945,6757.321L2121.904,6757.321L2121.904,6740.872L2113.863,6740.872L2113.863,6732.648L2105.821,6732.648L2105.821,6724.424L2121.904,6724.424L2121.904,6732.648L2129.945,6732.648L2129.945,6716.2L2097.78,6716.2ZM2137.986,6716.2L2137.986,6724.424L2146.028,6724.424L2146.028,6732.648L2154.069,6732.648L2154.069,6740.872L2146.028,6740.872L2146.028,6757.321L2154.069,6757.321L2154.069,6773.769L2162.11,6773.769L2162.11,6765.545L2170.152,6765.545L2170.152,6773.769L2178.193,6773.769L2178.193,6765.545L2186.234,6765.545L2186.234,6773.769L2194.275,6773.769L2194.275,6757.321L2210.358,6757.321L2210.358,6749.097L2202.317,6749.097L2202.317,6740.872L2186.234,6740.872L2186.234,6732.648L2202.317,6732.648L2202.317,6740.872L2210.358,6740.872L2210.358,6732.648L2202.317,6732.648L2202.317,6716.2L2186.234,6716.2L2186.234,6724.424L2170.152,6724.424L2170.152,6716.2L2154.069,6716.2L2154.069,6724.424L2162.11,6724.424L2162.11,6732.648L2154.069,6732.648L2154.069,6724.424L2146.028,6724.424L2146.028,6716.2L2137.986,6716.2ZM2226.44,6716.2L2226.44,6732.648L2234.482,6732.648L2234.482,6716.2L2226.44,6716.2ZM2242.523,6716.2L2242.523,6724.424L2250.564,6724.424L2250.564,6740.872L2266.647,6740.872L2266.647,6749.097L2274.688,6749.097L2274.688,6724.424L2250.564,6724.424L2250.564,6716.2L2242.523,6716.2ZM2274.688,6716.2L2274.688,6724.424L2282.729,6724.424L2282.729,6716.2L2274.688,6716.2ZM2298.812,6716.2L2298.812,6724.424L2306.853,6724.424L2306.853,6716.2L2298.812,6716.2ZM2314.894,6716.2L2314.894,6724.424L2347.059,6724.424L2347.059,6732.648L2371.183,6732.648L2371.183,6740.872L2387.266,6740.872L2387.266,6732.648L2379.224,6732.648L2379.224,6724.424L2355.101,6724.424L2355.101,6716.2L2314.894,6716.2ZM2387.266,6716.2L2387.266,6732.648L2395.307,6732.648L2395.307,6757.321L2387.266,6757.321L2387.266,6749.097L2379.224,6749.097L2379.224,6757.321L2363.142,6757.321L2363.142,6773.769L2371.183,6773.769L2371.183,6781.993L2363.142,6781.993L2363.142,6790.217L2371.183,6790.217L2371.183,6798.441L2387.266,6798.441L2387.266,6806.666L2395.307,6806.666L2395.307,6798.441L2387.266,6798.441L2387.266,6790.217L2395.307,6790.217L2395.307,6798.441L2403.348,6798.441L2403.348,6823.114L2419.431,6823.114L2419.431,6831.338L2411.389,6831.338L2411.389,6839.562L2403.348,6839.562L2403.348,6823.114L2395.307,6823.114L2395.307,6814.89L2387.266,6814.89L2387.266,6806.666L2363.142,6806.666L2363.142,6790.217L2355.101,6790.217L2355.101,6781.993L2347.059,6781.993L2347.059,6790.217L2355.101,6790.217L2355.101,6806.666L2363.142,6806.666L2363.142,6814.89L2371.183,6814.89L2371.183,6847.786L2363.142,6847.786L2363.142,6831.338L2355.101,6831.338L2355.101,6839.562L2347.059,6839.562L2347.059,6831.338L2339.018,6831.338L2339.018,6823.114L2322.936,6823.114L2322.936,6831.338L2306.853,6831.338L2306.853,6823.114L2298.812,6823.114L2298.812,6814.89L2290.77,6814.89L2290.77,6823.114L2298.812,6823.114L2298.812,6831.338L2306.853,6831.338L2306.853,6839.562L2330.977,6839.562L2330.977,6831.338L2339.018,6831.338L2339.018,6839.562L2347.059,6839.562L2347.059,6856.01L2339.018,6856.01L2339.018,6847.786L2322.936,6847.786L2322.936,6864.235L2330.977,6864.235L2330.977,6880.683L2347.059,6880.683L2347.059,6888.907L2355.101,6888.907L2355.101,6897.131L2347.059,6897.131L2347.059,6888.907L2314.894,6888.907L2314.894,6880.683L2322.936,6880.683L2322.936,6864.235L2314.894,6864.235L2314.894,6872.459L2306.853,6872.459L2306.853,6856.01L2314.894,6856.01L2314.894,6847.786L2306.853,6847.786L2306.853,6839.562L2298.812,6839.562L2298.812,6831.338L2282.729,6831.338L2282.729,6856.01L2290.77,6856.01L2290.77,6839.562L2298.812,6839.562L2298.812,6880.683L2306.853,6880.683L2306.853,6888.907L2314.894,6888.907L2314.894,6897.131L2330.977,6897.131L2330.977,6905.355L2322.936,6905.355L2322.936,6913.579L2339.018,6913.579L2339.018,6897.131L2347.059,6897.131L2347.059,6905.355L2363.142,6905.355L2363.142,6913.579L2371.183,6913.579L2371.183,6921.803L2379.224,6921.803L2379.224,6930.028L2387.266,6930.028L2387.266,6921.803L2395.307,6921.803L2395.307,6930.028L2403.348,6930.028L2403.348,6921.803L2395.307,6921.803L2395.307,6905.355L2411.389,6905.355L2411.389,6888.907L2403.348,6888.907L2403.348,6880.683L2387.266,6880.683L2387.266,6872.459L2403.348,6872.459L2403.348,6856.01L2395.307,6856.01L2395.307,6839.562L2403.348,6839.562L2403.348,6847.786L2419.431,6847.786L2419.431,6839.562L2435.513,6839.562L2435.513,6847.786L2443.554,6847.786L2443.554,6856.01L2451.596,6856.01L2451.596,6864.235L2443.554,6864.235L2443.554,6856.01L2435.513,6856.01L2435.513,6847.786L2427.472,6847.786L2427.472,6856.01L2419.431,6856.01L2419.431,6864.235L2411.389,6864.235L2411.389,6872.459L2427.472,6872.459L2427.472,6880.683L2435.513,6880.683L2435.513,6872.459L2427.472,6872.459L2427.472,6864.235L2443.554,6864.235L2443.554,6905.355L2451.596,6905.355L2451.596,6897.131L2459.637,6897.131L2459.637,6913.579L2467.678,6913.579L2467.678,6897.131L2459.637,6897.131L2459.637,6888.907L2467.678,6888.907L2467.678,6880.683L2475.72,6880.683L2475.72,6897.131L2483.761,6897.131L2483.761,6880.683L2475.72,6880.683L2475.72,6872.459L2459.637,6872.459L2459.637,6864.235L2467.678,6864.235L2467.678,6823.114L2459.637,6823.114L2459.637,6831.338L2435.513,6831.338L2435.513,6806.666L2427.472,6806.666L2427.472,6798.441L2435.513,6798.441L2435.513,6806.666L2443.554,6806.666L2443.554,6823.114L2451.596,6823.114L2451.596,6806.666L2443.554,6806.666L2443.554,6781.993L2435.513,6781.993L2435.513,6790.217L2419.431,6790.217L2419.431,6765.545L2411.389,6765.545L2411.389,6790.217L2419.431,6790.217L2419.431,6806.666L2427.472,6806.666L2427.472,6814.89L2411.389,6814.89L2411.389,6790.217L2395.307,6790.217L2395.307,6781.993L2387.266,6781.993L2387.266,6765.545L2395.307,6765.545L2395.307,6781.993L2403.348,6781.993L2403.348,6757.321L2411.389,6757.321L2411.389,6749.097L2403.348,6749.097L2403.348,6740.872L2411.389,6740.872L2411.389,6749.097L2419.431,6749.097L2419.431,6716.2L2403.348,6716.2L2403.348,6732.648L2395.307,6732.648L2395.307,6716.2L2387.266,6716.2ZM2427.472,6716.2L2427.472,6773.769L2483.761,6773.769L2483.761,6716.2L2427.472,6716.2ZM2041.491,6724.424L2041.491,6765.545L2001.285,6765.545L2001.285,6724.424L2041.491,6724.424ZM2290.77,6724.424L2290.77,6732.648L2298.812,6732.648L2298.812,6724.424L2290.77,6724.424ZM2475.72,6724.424L2475.72,6765.545L2435.513,6765.545L2435.513,6724.424L2475.72,6724.424ZM2009.326,6732.648L2009.326,6757.321L2033.45,6757.321L2033.45,6732.648L2009.326,6732.648ZM2282.729,6732.648L2282.729,6740.872L2290.77,6740.872L2290.77,6749.097L2282.729,6749.097L2282.729,6757.321L2306.853,6757.321L2306.853,6765.545L2314.894,6765.545L2314.894,6773.769L2322.936,6773.769L2322.936,6765.545L2314.894,6765.545L2314.894,6757.321L2306.853,6757.321L2306.853,6749.097L2322.936,6749.097L2322.936,6757.321L2339.018,6757.321L2339.018,6749.097L2322.936,6749.097L2322.936,6740.872L2290.77,6740.872L2290.77,6732.648L2282.729,6732.648ZM2322.936,6732.648L2322.936,6740.872L2330.977,6740.872L2330.977,6732.648L2322.936,6732.648ZM2339.018,6732.648L2339.018,6749.097L2347.059,6749.097L2347.059,6773.769L2355.101,6773.769L2355.101,6749.097L2347.059,6749.097L2347.059,6732.648L2339.018,6732.648ZM2443.554,6732.648L2443.554,6757.321L2467.678,6757.321L2467.678,6732.648L2443.554,6732.648ZM2355.101,6740.872L2355.101,6749.097L2371.183,6749.097L2371.183,6740.872L2355.101,6740.872ZM2186.234,6757.321L2178.193,6757.321L2178.193,6740.872L2186.234,6740.872L2186.234,6757.321ZM2057.574,6757.321L2057.574,6773.769L2065.615,6773.769L2065.615,6781.993L2081.698,6781.993L2081.698,6757.321L2057.574,6757.321ZM2105.821,6757.321L2105.821,6790.217L2113.863,6790.217L2113.863,6798.441L2105.821,6798.441L2105.821,6790.217L2097.78,6790.217L2097.78,6757.321L2105.821,6757.321ZM2137.986,6757.321L2137.986,6773.769L2146.028,6773.769L2146.028,6757.321L2137.986,6757.321ZM2250.564,6757.321L2250.564,6781.993L2226.44,6781.993L2226.44,6757.321L2250.564,6757.321ZM2073.656,6765.545L2073.656,6773.769L2065.615,6773.769L2065.615,6765.545L2073.656,6765.545ZM2121.904,6790.217L2129.945,6790.217L2129.945,6798.441L2121.904,6798.441L2121.904,6790.217L2113.863,6790.217L2113.863,6757.321L2121.904,6757.321L2121.904,6790.217ZM2234.482,6765.545L2234.482,6773.769L2242.523,6773.769L2242.523,6765.545L2234.482,6765.545ZM2282.729,6765.545L2282.729,6773.769L2290.77,6773.769L2290.77,6765.545L2282.729,6765.545ZM2298.812,6765.545L2298.812,6773.769L2306.853,6773.769L2306.853,6765.545L2298.812,6765.545ZM2330.977,6765.545L2330.977,6781.993L2339.018,6781.993L2339.018,6765.545L2330.977,6765.545ZM2379.224,6765.545L2379.224,6773.769L2371.183,6773.769L2371.183,6765.545L2379.224,6765.545ZM1993.244,6781.993L1993.244,6806.666L2009.326,6806.666L2009.326,6798.441L2017.367,6798.441L2017.367,6806.666L2025.409,6806.666L2025.409,6798.441L2017.367,6798.441L2017.367,6790.217L2009.326,6790.217L2009.326,6781.993L1993.244,6781.993ZM2025.409,6781.993L2025.409,6790.217L2033.45,6790.217L2033.45,6823.114L2049.533,6823.114L2049.533,6831.338L2057.574,6831.338L2057.574,6823.114L2049.533,6823.114L2049.533,6814.89L2041.491,6814.89L2041.491,6806.666L2065.615,6806.666L2065.615,6814.89L2057.574,6814.89L2057.574,6823.114L2065.615,6823.114L2065.615,6831.338L2073.656,6831.338L2073.656,6839.562L2089.739,6839.562L2089.739,6823.114L2081.698,6823.114L2081.698,6814.89L2073.656,6814.89L2073.656,6806.666L2065.615,6806.666L2065.615,6790.217L2057.574,6790.217L2057.574,6798.441L2041.491,6798.441L2041.491,6790.217L2049.533,6790.217L2049.533,6781.993L2025.409,6781.993ZM2451.596,6781.993L2451.596,6790.217L2459.637,6790.217L2459.637,6814.89L2475.72,6814.89L2475.72,6823.114L2483.761,6823.114L2483.761,6806.666L2467.678,6806.666L2467.678,6790.217L2475.72,6790.217L2475.72,6798.441L2483.761,6798.441L2483.761,6781.993L2451.596,6781.993ZM2073.656,6790.217L2073.656,6806.666L2081.698,6806.666L2081.698,6790.217L2073.656,6790.217ZM2162.11,6790.217L2162.11,6798.441L2154.069,6798.441L2154.069,6806.666L2137.986,6806.666L2137.986,6798.441L2146.028,6798.441L2146.028,6790.217L2162.11,6790.217ZM2330.977,6790.217L2330.977,6806.666L2347.059,6806.666L2347.059,6823.114L2363.142,6823.114L2363.142,6814.89L2355.101,6814.89L2355.101,6806.666L2347.059,6806.666L2347.059,6790.217L2330.977,6790.217ZM2202.317,6798.441L2202.317,6806.666L2194.275,6806.666L2194.275,6798.441L2202.317,6798.441ZM2218.399,6798.441L2218.399,6806.666L2210.358,6806.666L2210.358,6798.441L2218.399,6798.441ZM2274.688,6798.441L2274.688,6806.666L2266.647,6806.666L2266.647,6814.89L2274.688,6814.89L2274.688,6823.114L2282.729,6823.114L2282.729,6806.666L2290.77,6806.666L2290.77,6798.441L2274.688,6798.441ZM2298.812,6806.666L2298.812,6814.89L2306.853,6814.89L2306.853,6823.114L2314.894,6823.114L2314.894,6814.89L2306.853,6814.89L2306.853,6806.666L2298.812,6806.666ZM2017.367,6814.89L2017.367,6823.114L2025.409,6823.114L2025.409,6814.89L2017.367,6814.89ZM2194.275,6814.89L2186.234,6814.89L2186.234,6806.666L2194.275,6806.666L2194.275,6814.89ZM2258.605,6823.114L2258.605,6839.562L2250.564,6839.562L2250.564,6823.114L2258.605,6823.114ZM2121.904,6831.338L2121.904,6839.562L2129.945,6839.562L2129.945,6831.338L2121.904,6831.338ZM2025.409,6839.562L2025.409,6847.786L2017.367,6847.786L2017.367,6839.562L2025.409,6839.562ZM2387.266,6839.562L2387.266,6847.786L2379.224,6847.786L2379.224,6839.562L2387.266,6839.562ZM2459.637,6839.562L2459.637,6856.01L2451.596,6856.01L2451.596,6847.786L2443.554,6847.786L2443.554,6839.562L2459.637,6839.562ZM2033.45,6847.786L2033.45,6839.562L2049.533,6839.562L2049.533,6847.786L2033.45,6847.786ZM2065.615,6847.786L2065.615,6864.235L2041.491,6864.235L2041.491,6856.01L2057.574,6856.01L2057.574,6847.786L2065.615,6847.786ZM2475.72,6847.786L2475.72,6856.01L2483.761,6856.01L2483.761,6847.786L2475.72,6847.786ZM2105.821,6856.01L2105.821,6864.235L2097.78,6864.235L2097.78,6856.01L2105.821,6856.01ZM2371.183,6856.01L2371.183,6864.235L2379.224,6864.235L2379.224,6880.683L2363.142,6880.683L2363.142,6888.907L2371.183,6888.907L2371.183,6905.355L2363.142,6905.355L2363.142,6888.907L2355.101,6888.907L2355.101,6880.683L2347.059,6880.683L2347.059,6872.459L2339.018,6872.459L2339.018,6864.235L2355.101,6864.235L2355.101,6847.786L2363.142,6847.786L2363.142,6856.01L2371.183,6856.01ZM2081.698,6864.235L2081.698,6872.459L2089.739,6872.459L2089.739,6880.683L2097.78,6880.683L2097.78,6872.459L2089.739,6872.459L2089.739,6864.235L2081.698,6864.235ZM2146.028,6864.235L2146.028,6880.683L2170.152,6880.683L2170.152,6864.235L2162.11,6864.235L2162.11,6856.01L2178.193,6856.01L2178.193,6872.459L2186.234,6872.459L2186.234,6880.683L2194.275,6880.683L2194.275,6872.459L2202.317,6872.459L2202.317,6888.907L2186.234,6888.907L2186.234,6880.683L2178.193,6880.683L2178.193,6888.907L2186.234,6888.907L2186.234,6897.131L2210.358,6897.131L2210.358,6905.355L2218.399,6905.355L2218.399,6913.579L2226.44,6913.579L2226.44,6930.028L2218.399,6930.028L2218.399,6913.579L2202.317,6913.579L2202.317,6905.355L2194.275,6905.355L2194.275,6921.803L2202.317,6921.803L2202.317,6938.252L2194.275,6938.252L2194.275,6946.476L2186.234,6946.476L2186.234,6938.252L2170.152,6938.252L2170.152,6930.028L2194.275,6930.028L2194.275,6921.803L2170.152,6921.803L2170.152,6913.579L2154.069,6913.579L2154.069,6897.131L2170.152,6897.131L2170.152,6913.579L2178.193,6913.579L2178.193,6905.355L2186.234,6905.355L2186.234,6897.131L2178.193,6897.131L2178.193,6888.907L2146.028,6888.907L2146.028,6880.683L2129.945,6880.683L2129.945,6872.459L2137.986,6872.459L2137.986,6864.235L2146.028,6864.235ZM2379.224,6864.235L2379.224,6856.01L2395.307,6856.01L2395.307,6864.235L2379.224,6864.235ZM2154.069,6872.459L2154.069,6864.235L2162.11,6864.235L2162.11,6872.459L2154.069,6872.459ZM2242.523,6872.459L2242.523,6880.683L2250.564,6880.683L2250.564,6872.459L2242.523,6872.459ZM2073.656,6880.683L2073.656,6888.907L2081.698,6888.907L2081.698,6897.131L2097.78,6897.131L2097.78,6888.907L2089.739,6888.907L2089.739,6880.683L2073.656,6880.683ZM2411.389,6880.683L2411.389,6888.907L2419.431,6888.907L2419.431,6897.131L2427.472,6897.131L2427.472,6905.355L2435.513,6905.355L2435.513,6913.579L2443.554,6913.579L2443.554,6921.803L2451.596,6921.803L2451.596,6930.028L2443.554,6930.028L2443.554,6921.803L2427.472,6921.803L2427.472,6905.355L2419.431,6905.355L2419.431,6913.579L2403.348,6913.579L2403.348,6921.803L2419.431,6921.803L2419.431,6930.028L2411.389,6930.028L2411.389,6946.476L2403.348,6946.476L2403.348,6954.7L2395.307,6954.7L2395.307,6962.924L2403.348,6962.924L2403.348,6979.372L2411.389,6979.372L2411.389,6987.597L2443.554,6987.597L2443.554,7004.045L2451.596,7004.045L2451.596,7012.269L2459.637,7012.269L2459.637,7020.493L2467.678,7020.493L2467.678,7012.269L2475.72,7012.269L2475.72,7028.717L2483.761,7028.717L2483.761,7004.045L2475.72,7004.045L2475.72,6995.821L2467.678,6995.821L2467.678,6979.372L2475.72,6979.372L2475.72,6987.597L2483.761,6987.597L2483.761,6979.372L2475.72,6979.372L2475.72,6971.148L2467.678,6971.148L2467.678,6921.803L2451.596,6921.803L2451.596,6913.579L2443.554,6913.579L2443.554,6905.355L2435.513,6905.355L2435.513,6888.907L2419.431,6888.907L2419.431,6880.683L2411.389,6880.683ZM2451.596,6880.683L2451.596,6872.459L2459.637,6872.459L2459.637,6880.683L2451.596,6880.683ZM2009.326,6888.907L2009.326,6897.131L2017.367,6897.131L2017.367,6888.907L2009.326,6888.907ZM2282.729,6888.907L2282.729,6897.131L2298.812,6897.131L2298.812,6905.355L2290.77,6905.355L2290.77,6913.579L2298.812,6913.579L2298.812,6921.803L2290.77,6921.803L2290.77,6913.579L2282.729,6913.579L2282.729,6905.355L2274.688,6905.355L2274.688,6888.907L2282.729,6888.907ZM2395.307,6888.907L2395.307,6897.131L2387.266,6897.131L2387.266,6888.907L2395.307,6888.907ZM1993.244,6897.131L1993.244,6905.355L2001.285,6905.355L2001.285,6913.579L2009.326,6913.579L2009.326,6897.131L1993.244,6897.131ZM2041.491,6913.579L2041.491,6905.355L2065.615,6905.355L2065.615,6913.579L2041.491,6913.579ZM2347.059,6913.579L2347.059,6921.803L2355.101,6921.803L2355.101,6913.579L2347.059,6913.579ZM2475.72,6913.579L2475.72,6930.028L2483.761,6930.028L2483.761,6913.579L2475.72,6913.579ZM1993.244,6921.803L1993.244,6930.028L2001.285,6930.028L2001.285,6921.803L1993.244,6921.803ZM2137.986,6921.803L2137.986,6913.579L2154.069,6913.579L2154.069,6921.803L2137.986,6921.803ZM2282.729,6921.803L2274.688,6921.803L2274.688,6913.579L2266.647,6913.579L2266.647,6905.355L2274.688,6905.355L2274.688,6913.579L2282.729,6913.579L2282.729,6921.803ZM2041.491,6930.028L2041.491,6938.252L2049.533,6938.252L2049.533,6930.028L2041.491,6930.028ZM2081.698,6930.028L2081.698,6921.803L2089.739,6921.803L2089.739,6930.028L2081.698,6930.028ZM2025.409,6938.252L2025.409,6946.476L2017.367,6946.476L2017.367,6938.252L2025.409,6938.252ZM2250.564,6938.252L2250.564,6946.476L2218.399,6946.476L2218.399,6954.7L2210.358,6954.7L2210.358,6938.252L2250.564,6938.252ZM2258.605,6938.252L2258.605,6930.028L2266.647,6930.028L2266.647,6938.252L2258.605,6938.252ZM2330.977,6938.252L2330.977,6930.028L2347.059,6930.028L2347.059,6938.252L2330.977,6938.252ZM2443.554,6946.476L2427.472,6946.476L2427.472,6930.028L2443.554,6930.028L2443.554,6946.476ZM2475.72,6938.252L2475.72,6946.476L2483.761,6946.476L2483.761,6938.252L2475.72,6938.252ZM2306.853,6946.476L2306.853,6954.7L2314.894,6954.7L2314.894,6946.476L2306.853,6946.476ZM2347.059,6946.476L2347.059,6954.7L2339.018,6954.7L2339.018,6946.476L2347.059,6946.476ZM2057.574,6954.7L2057.574,6979.372L2033.45,6979.372L2033.45,6954.7L2057.574,6954.7ZM2170.152,6954.7L2170.152,6946.476L2186.234,6946.476L2186.234,6954.7L2170.152,6954.7ZM2250.564,6954.7L2250.564,6979.372L2226.44,6979.372L2226.44,6954.7L2250.564,6954.7ZM2443.554,6954.7L2443.554,6979.372L2419.431,6979.372L2419.431,6954.7L2443.554,6954.7ZM2459.637,6954.7L2459.637,6979.372L2451.596,6979.372L2451.596,6954.7L2459.637,6954.7ZM2041.491,6962.924L2041.491,6971.148L2049.533,6971.148L2049.533,6962.924L2041.491,6962.924ZM2089.739,6962.924L2089.739,6954.7L2097.78,6954.7L2097.78,6962.924L2089.739,6962.924ZM2234.482,6962.924L2234.482,6971.148L2242.523,6971.148L2242.523,6962.924L2234.482,6962.924ZM2314.894,6962.924L2314.894,6979.372L2322.936,6979.372L2322.936,6962.924L2314.894,6962.924ZM2427.472,6962.924L2427.472,6971.148L2435.513,6971.148L2435.513,6962.924L2427.472,6962.924ZM2081.698,6971.148L2081.698,6979.372L2089.739,6979.372L2089.739,6987.597L2073.656,6987.597L2073.656,6979.372L2065.615,6979.372L2065.615,6971.148L2073.656,6971.148L2073.656,6962.924L2089.739,6962.924L2089.739,6971.148L2081.698,6971.148ZM2105.821,6971.148L2105.821,6962.924L2113.863,6962.924L2113.863,6971.148L2105.821,6971.148ZM2170.152,6971.148L2170.152,6979.372L2178.193,6979.372L2178.193,6987.597L2186.234,6987.597L2186.234,6995.821L2194.275,6995.821L2194.275,7012.269L2202.317,7012.269L2202.317,7028.717L2194.275,7028.717L2194.275,7020.493L2186.234,7020.493L2186.234,7028.717L2178.193,7028.717L2178.193,7020.493L2146.028,7020.493L2146.028,7012.269L2154.069,7012.269L2154.069,6995.821L2170.152,6995.821L2170.152,7004.045L2178.193,7004.045L2178.193,7012.269L2186.234,7012.269L2186.234,7004.045L2178.193,7004.045L2178.193,6995.821L2170.152,6995.821L2170.152,6987.597L2162.11,6987.597L2162.11,6971.148L2170.152,6971.148ZM2129.945,6979.372L2129.945,6987.597L2137.986,6987.597L2137.986,6995.821L2146.028,6995.821L2146.028,7004.045L2137.986,7004.045L2137.986,6995.821L2129.945,6995.821L2129.945,6987.597L2113.863,6987.597L2113.863,6995.821L2105.821,6995.821L2105.821,6987.597L2097.78,6987.597L2097.78,6979.372L2129.945,6979.372ZM2459.637,6987.597L2459.637,7004.045L2451.596,7004.045L2451.596,6987.597L2459.637,6987.597ZM2089.739,6995.821L2089.739,7012.269L2105.821,7012.269L2105.821,7004.045L2121.904,7004.045L2121.904,6995.821L2129.945,6995.821L2129.945,7012.269L2121.904,7012.269L2121.904,7020.493L2146.028,7020.493L2146.028,7028.717L2170.152,7028.717L2170.152,7036.941L2162.11,7036.941L2162.11,7045.165L2186.234,7045.165L2186.234,7053.39L2170.152,7053.39L2170.152,7061.614L2186.234,7061.614L2186.234,7078.062L2178.193,7078.062L2178.193,7086.286L2170.152,7086.286L2170.152,7069.838L2162.11,7069.838L2162.11,7061.614L2154.069,7061.614L2154.069,7069.838L2146.028,7069.838L2146.028,7053.39L2162.11,7053.39L2162.11,7045.165L2137.986,7045.165L2137.986,7053.39L2129.945,7053.39L2129.945,7045.165L2121.904,7045.165L2121.904,7036.941L2105.821,7036.941L2105.821,7028.717L2113.863,7028.717L2113.863,7020.493L2089.739,7020.493L2089.739,7012.269L2081.698,7012.269L2081.698,6995.821L2089.739,6995.821ZM2226.44,6995.821L2226.44,7004.045L2234.482,7004.045L2234.482,6995.821L2226.44,6995.821ZM2395.307,7004.045L2403.348,7004.045L2403.348,7012.269L2435.513,7012.269L2435.513,7020.493L2411.389,7020.493L2411.389,7028.717L2403.348,7028.717L2403.348,7020.493L2395.307,7020.493L2395.307,7036.941L2419.431,7036.941L2419.431,7028.717L2435.513,7028.717L2435.513,7045.165L2411.389,7045.165L2411.389,7061.614L2403.348,7061.614L2403.348,7045.165L2395.307,7045.165L2395.307,7036.941L2379.224,7036.941L2379.224,7020.493L2387.266,7020.493L2387.266,7012.269L2395.307,7012.269L2395.307,7004.045L2387.266,7004.045L2387.266,6987.597L2395.307,6987.597L2395.307,7004.045ZM2162.11,7004.045L2162.11,7012.269L2170.152,7012.269L2170.152,7004.045L2162.11,7004.045ZM2242.523,7004.045L2242.523,7012.269L2250.564,7012.269L2250.564,7004.045L2242.523,7004.045ZM2041.491,7012.269L2041.491,7020.493L2049.533,7020.493L2049.533,7028.717L2065.615,7028.717L2065.615,7020.493L2057.574,7020.493L2057.574,7012.269L2041.491,7012.269ZM2234.482,7012.269L2234.482,7020.493L2218.399,7020.493L2218.399,7028.717L2250.564,7028.717L2250.564,7036.941L2258.605,7036.941L2258.605,7028.717L2250.564,7028.717L2250.564,7020.493L2242.523,7020.493L2242.523,7012.269L2234.482,7012.269ZM2306.853,7012.269L2306.853,7020.493L2290.77,7020.493L2290.77,7012.269L2306.853,7012.269ZM2347.059,7020.493L2347.059,7028.717L2339.018,7028.717L2339.018,7020.493L2347.059,7020.493ZM2371.183,7020.493L2371.183,7036.941L2363.142,7036.941L2363.142,7020.493L2371.183,7020.493ZM1993.244,7028.717L1993.244,7036.941L2009.326,7036.941L2009.326,7045.165L2017.367,7045.165L2017.367,7036.941L2009.326,7036.941L2009.326,7028.717L1993.244,7028.717ZM2121.904,7028.717L2121.904,7036.941L2137.986,7036.941L2137.986,7028.717L2121.904,7028.717ZM2298.812,7028.717L2298.812,7045.165L2306.853,7045.165L2306.853,7053.39L2298.812,7053.39L2298.812,7045.165L2282.729,7045.165L2282.729,7036.941L2290.77,7036.941L2290.77,7028.717L2298.812,7028.717ZM2242.523,7036.941L2242.523,7045.165L2250.564,7045.165L2250.564,7036.941L2242.523,7036.941ZM2459.637,7036.941L2459.637,7045.165L2467.678,7045.165L2467.678,7053.39L2459.637,7053.39L2459.637,7061.614L2467.678,7061.614L2467.678,7069.838L2475.72,7069.838L2475.72,7061.614L2483.761,7061.614L2483.761,7053.39L2475.72,7053.39L2475.72,7045.165L2467.678,7045.165L2467.678,7036.941L2459.637,7036.941ZM2049.533,7045.165L2041.491,7045.165L2041.491,7036.941L2049.533,7036.941L2049.533,7045.165ZM2234.482,7045.165L2234.482,7053.39L2242.523,7053.39L2242.523,7045.165L2234.482,7045.165ZM2258.605,7053.39L2258.605,7061.614L2266.647,7061.614L2266.647,7053.39L2258.605,7053.39ZM1993.244,7061.614L1993.244,7102.734L2001.285,7102.734L2001.285,7119.183L2009.326,7119.183L2009.326,7069.838L2001.285,7069.838L2001.285,7061.614L1993.244,7061.614ZM2129.945,7061.614L2121.904,7061.614L2121.904,7053.39L2129.945,7053.39L2129.945,7061.614ZM2202.317,7061.614L2202.317,7069.838L2194.275,7069.838L2194.275,7061.614L2202.317,7061.614ZM2250.564,7061.614L2250.564,7069.838L2258.605,7069.838L2258.605,7061.614L2250.564,7061.614ZM2274.688,7069.838L2274.688,7078.062L2266.647,7078.062L2266.647,7086.286L2290.77,7086.286L2290.77,7078.062L2282.729,7078.062L2282.729,7069.838L2274.688,7069.838ZM2347.059,7069.838L2347.059,7078.062L2339.018,7078.062L2339.018,7069.838L2347.059,7069.838ZM2371.183,7069.838L2371.183,7094.51L2379.224,7094.51L2379.224,7102.734L2387.266,7102.734L2387.266,7110.959L2403.348,7110.959L2403.348,7078.062L2387.266,7078.062L2387.266,7069.838L2371.183,7069.838ZM2306.853,7078.062L2306.853,7086.286L2314.894,7086.286L2314.894,7078.062L2306.853,7078.062ZM2475.72,7078.062L2475.72,7086.286L2483.761,7086.286L2483.761,7078.062L2475.72,7078.062ZM2033.45,7086.286L2033.45,7094.51L2041.491,7094.51L2041.491,7102.734L2049.533,7102.734L2049.533,7094.51L2041.491,7094.51L2041.491,7086.286L2033.45,7086.286ZM2298.812,7086.286L2298.812,7094.51L2306.853,7094.51L2306.853,7086.286L2298.812,7086.286ZM2322.936,7086.286L2322.936,7094.51L2314.894,7094.51L2314.894,7102.734L2347.059,7102.734L2347.059,7127.407L2355.101,7127.407L2355.101,7102.734L2347.059,7102.734L2347.059,7094.51L2339.018,7094.51L2339.018,7086.286L2322.936,7086.286ZM2395.307,7086.286L2395.307,7102.734L2387.266,7102.734L2387.266,7086.286L2395.307,7086.286ZM2226.44,7094.51L2226.44,7102.734L2234.482,7102.734L2234.482,7094.51L2226.44,7094.51ZM2274.688,7094.51L2274.688,7102.734L2282.729,7102.734L2282.729,7094.51L2274.688,7094.51ZM2210.358,7110.959L2226.44,7110.959L2226.44,7119.183L2242.523,7119.183L2242.523,7127.407L2234.482,7127.407L2234.482,7135.631L2226.44,7135.631L2226.44,7119.183L2210.358,7119.183L2210.358,7110.959L2194.275,7110.959L2194.275,7094.51L2210.358,7094.51L2210.358,7110.959ZM2306.853,7102.734L2306.853,7110.959L2314.894,7110.959L2314.894,7102.734L2306.853,7102.734ZM1993.244,7119.183L1993.244,7127.407L2001.285,7127.407L2001.285,7119.183L1993.244,7119.183ZM2282.729,7119.183L2282.729,7127.407L2290.77,7127.407L2290.77,7119.183L2298.812,7119.183L2298.812,7135.631L2274.688,7135.631L2274.688,7143.855L2266.647,7143.855L2266.647,7152.079L2258.605,7152.079L2258.605,7143.855L2242.523,7143.855L2242.523,7135.631L2258.605,7135.631L2258.605,7119.183L2282.729,7119.183ZM2443.554,7119.183L2443.554,7135.631L2459.637,7135.631L2459.637,7176.752L2467.678,7176.752L2467.678,7184.976L2475.72,7184.976L2475.72,7193.2L2483.761,7193.2L2483.761,7176.752L2467.678,7176.752L2467.678,7152.079L2475.72,7152.079L2475.72,7160.303L2483.761,7160.303L2483.761,7152.079L2475.72,7152.079L2475.72,7143.855L2467.678,7143.855L2467.678,7127.407L2451.596,7127.407L2451.596,7119.183L2443.554,7119.183ZM2025.409,7127.407L2025.409,7119.183L2033.45,7119.183L2033.45,7127.407L2025.409,7127.407ZM2475.72,7135.631L2475.72,7143.855L2483.761,7143.855L2483.761,7135.631L2475.72,7135.631ZM2226.44,7143.855L2218.399,7143.855L2218.399,7135.631L2226.44,7135.631L2226.44,7143.855ZM2419.431,7143.855L2411.389,7143.855L2411.389,7135.631L2419.431,7135.631L2419.431,7143.855ZM2250.564,7152.079L2250.564,7176.752L2226.44,7176.752L2226.44,7152.079L2250.564,7152.079ZM2298.812,7152.079L2298.812,7168.528L2306.853,7168.528L2306.853,7176.752L2298.812,7176.752L2298.812,7193.2L2306.853,7193.2L2306.853,7184.976L2314.894,7184.976L2314.894,7160.303L2306.853,7160.303L2306.853,7152.079L2298.812,7152.079ZM2347.059,7152.079L2347.059,7160.303L2339.018,7160.303L2339.018,7152.079L2347.059,7152.079ZM2443.554,7152.079L2443.554,7176.752L2419.431,7176.752L2419.431,7152.079L2443.554,7152.079ZM1993.244,7160.303L1993.244,7217.872L2049.533,7217.872L2049.533,7160.303L1993.244,7160.303ZM2234.482,7160.303L2234.482,7168.528L2242.523,7168.528L2242.523,7160.303L2234.482,7160.303ZM2427.472,7160.303L2427.472,7168.528L2435.513,7168.528L2435.513,7160.303L2427.472,7160.303ZM2041.491,7168.528L2041.491,7209.648L2001.285,7209.648L2001.285,7168.528L2041.491,7168.528ZM2057.574,7168.528L2057.574,7184.976L2065.615,7184.976L2065.615,7168.528L2057.574,7168.528ZM2170.152,7168.528L2170.152,7176.752L2178.193,7176.752L2178.193,7168.528L2170.152,7168.528ZM2009.326,7176.752L2009.326,7201.424L2033.45,7201.424L2033.45,7176.752L2009.326,7176.752ZM2137.986,7184.976L2137.986,7176.752L2154.069,7176.752L2154.069,7184.976L2137.986,7184.976ZM2129.945,7193.2L2129.945,7209.648L2137.986,7209.648L2137.986,7217.872L2154.069,7217.872L2154.069,7209.648L2146.028,7209.648L2146.028,7201.424L2137.986,7201.424L2137.986,7193.2L2129.945,7193.2ZM2057.574,7201.424L2057.574,7217.872L2065.615,7217.872L2065.615,7201.424L2057.574,7201.424ZM2210.358,7201.424L2210.358,7209.648L2202.317,7209.648L2202.317,7201.424L2210.358,7201.424ZM2162.11,7209.648L2162.11,7217.872L2170.152,7217.872L2170.152,7209.648L2162.11,7209.648ZM2298.812,7209.648L2298.812,7217.872L2314.894,7217.872L2314.894,7209.648L2298.812,7209.648ZM2427.472,7209.648L2427.472,7217.872L2435.513,7217.872L2435.513,7209.648L2427.472,7209.648Z" style="stroke:black;stroke-opacity:0;stroke-width:2.09px;"/>
    </g>
</svg>
